<svg id="Layer_1" version="1.1" viewBox="0 0 512 512" xml:space="preserve" xmlns="http://www.w3.org/2000/svg"><path d="M258.6 507.2C120.3 507.7 6.5 392.6 9.9 251.7 13.1 117.9 124 7.1 262.1 8.7c136.7 1.6 249.5 115.4 246 255.8C504.8 398 394.7 508 258.6 507.2zm219.2-249.1c-1-123.5-99.1-218.2-215.4-220.1-119.9-1.9-222.1 94.8-222 220.2.1 123.3 98.8 217.8 214.9 219.8 120 2 221.5-94.6 222.5-219.9z"/><path d="M193.9 292.4c-1.1-10.4-2.1-20-3.1-30.1-10.1-.7-20.7-3.3-30.2-9.2-26.4-16.6-37-41.6-36.7-71.6.4-43.5 37.9-80.1 81.4-80.2 26.3-.1 52.6 0 79 0 4 0 8 .2 9.5 4.6 1.5 4.3.3 8-3.6 11-4.1 3.2-8 6.5-11.8 10.1-4.2 4-8.5 7.6-15.3 5.9 2.8 6.4 5.9 12.1 7.8 18.2 10.9 34.7 5.1 65.4-22.1 90.9-3.1 2.9-6.2 6.1-8.9 9.4-5 6.1-5.5 12.7-.5 18.7 6.5 7.7 13.2 15.5 20.9 21.9 35.3 29.5 38.7 96.3-2.2 127.3-13.2 10-27.9 16.2-44.2 18.1-27.1 3.1-53.2-.2-77.2-14.3-16.2-9.5-27.8-23-30.7-42.1-2.8-18.9 2.6-36.1 13.8-51.2 17.1-23.1 40.6-34.7 69-36.9 2.1-.3 4.1-.4 5.1-.5zm7.3 25.3c-8-.1-17.1 1.8-25.4 6.3-16.1 8.6-27.6 20.7-26.5 40.4 1 17.3 10.3 29.7 25.6 37.1 17.2 8.3 34.9 6.2 52.5.8 27.4-8.5 34.6-49.4 12.4-66.4-3.7-2.8-7.3-5.8-10.6-9.1-7.3-7.6-16.6-9.1-28-9.1zm-35.7-147.5c1.7 9.6 2.5 17.7 4.7 25.5 4.1 14.5 10.9 27.6 23.8 36.3 12.2 8.2 25 5 32.1-7.8 7.3-13.1 8.2-27.2 5.9-41.7-2.6-16.8-8.7-32.1-21.7-43.7-14.2-12.7-30.4-9.9-38.3 7.3-3.5 7.8-4.6 16.8-6.5 24.1z"/><path d="M341.8 238.2v-54.4c0-2.3.1-4.8 1.1-6.7 2.7-5 21.2-5 24 0 1.1 2 1.5 4.8 1.5 7.2.1 16 .1 32 .1 48v6H413c7.9 0 9.9 2.1 9.9 10.2V261c-.1 6.8-2.3 9-9 9.1h-45.5v53.5c0 9-1.9 10.9-10.7 11h-6.5c-7.7 0-9.5-1.8-9.6-9.4v-54.8c-2.3-.1-4.1-.2-5.8-.2h-40c-6.2 0-8.8-2.5-8.9-8.7-.1-4.8-.1-9.7 0-14.5.2-5.9 2.7-8.4 8.7-8.5 13.3-.1 26.7 0 40 0 2-.3 3.8-.3 6.2-.3z"/></svg>